#!OML:ASF C:\ViconDB\ViconDB\414\Spring2016\041811\Spring2016.ASF
:FULLY-SPECIFIED
:DEGREES
370
root 9.34867 18.3045 -47.3196 -182.792 -2.09651 -178.544
lowerback 1.19022 0.0311803 -0.172704
upperback 1.76793 -0.0265406 1.36782
thorax 1.14372 -0.048755 1.49732
lowerneck -9.4325 -2.13002 -8.53145
upperneck 23.0023 -6.08853 12.5853
head 9.37072 -2.96577 5.06697
rclavicle -1.36664e-015 -1.98785e-015
rhumerus -40.527 -16.5633 -80.0097
rradius 32.9135
rwrist 40.7754
rhand -32.1139 -13.2996
rfingers 7.12502
rthumb -5.35868 -43.2118
lclavicle -1.36664e-015 -1.98785e-015
lhumerus -35.6293 7.77816 84.2966
lradius 21.2941
lwrist -41.767
lhand -27.0684 15.8661
lfingers 7.12502
lthumb -0.486145 45.8453
rfemur -10.7382 -16.4324 24.4968
rtibia 30.3008
rfoot -161.196 11.1138
rtoes -19.1573
lfemur -15.4017 9.28973 -8.0974
ltibia 67.9586
lfoot 1.78834 -0.62064
ltoes -7.76485
371
root 9.35942 18.3083 -47.467 -182.891 -1.98812 -178.692
lowerback 1.52143 0.180423 -0.31703
upperback 1.78803 0.172063 1.32116
thorax 0.972943 0.0492094 1.52928
lowerneck -9.4566 -2.13064 -8.51607
upperneck 23.1797 -6.1065 12.5054
head 9.43653 -2.98281 5.03767
rclavicle -8.05078e-015 -5.56597e-015
rhumerus -39.4982 -15.9788 -80.5018
rradius 33.0722
rwrist 40.556
rhand -32.1662 -13.1758
rfingers 7.12502
rthumb -5.40916 -43.0867
lclavicle -8.05078e-015 -5.56597e-015
lhumerus -36.1887 8.54656 83.8629
lradius 21.0091
lwrist -43.5382
lhand -26.0256 16.5322
lfingers 7.12502
lthumb 0.521003 46.5113
rfemur -9.86081 -16.0951 24.2719
rtibia 30.0014
rfoot -161.636 11.2511
rtoes -19.0965
lfemur -16.6535 9.58204 -8.40951
ltibia 68.0261
lfoot 0.321191 0.777764
ltoes -7.72524
372
root 9.36689 18.3124 -47.6216 -182.995 -1.69004 -178.8
lowerback 1.71766 0.346179 -0.375812
upperback 1.83834 0.391948 1.23708
thorax 0.908341 0.158525 1.47365
lowerneck -9.47043 -1.82778 -7.80971
upperneck 23.1433 -5.628 11.9751
head 9.33493 -2.73572 4.77734
rclavicle -7.20594e-016 -1.43125e-014
rhumerus -38.488 -15.3402 -81.0731
rradius 33.2963
rwrist 40.4505
rhand -32.1194 -13.1937
rfingers 7.12502
rthumb -5.364 -43.1058
lclavicle -7.20594e-016 -1.43125e-014
lhumerus -36.8218 8.76863 83.6847
lradius 20.9298
lwrist -43.3916
lhand -26.4147 16.2508
lfingers 7.12502
lthumb 0.145259 46.2305
rfemur -8.92783 -15.6092 24.0294
rtibia 29.7023
rfoot -162.042 11.5055
rtoes -18.3056
lfemur -17.7034 9.87525 -8.72078
ltibia 67.7999
lfoot -1.26944 1.84183
ltoes -7.61335
373
root 9.3712 18.3091 -47.7742 -183.066 -1.38876 -178.942
lowerback 1.87642 0.455651 -0.513806
upperback 1.88373 0.536353 1.1347
thorax 0.861503 0.229592 1.44377
lowerneck -9.4784 -1.98365 -8.1384
upperneck 23.4742 -5.95357 12.2077
head 9.50543 -2.91376 4.8878
rclavicle -1.83938e-014 -8.94531e-015
rhumerus -37.3979 -14.6739 -81.7253
rradius 33.4489
rwrist 40.2199
rhand -32.2003 -13.2599
rfingers 7.12502
rthumb -5.44215 -43.17
lclavicle -1.83938e-014 -8.94531e-015
lhumerus -37.4527 8.99567 83.5066
lradius 20.8171
lwrist -42.4063
lhand -26.4843 16.1488
lfingers 7.12502
lthumb 0.0780129 46.1285
rfemur -8.10254 -15.2791 23.767
rtibia 29.4253
rfoot -162.271 11.6988
rtoes -18.2074
lfemur -18.725 10.1704 -9.12805
ltibia 67.2924
lfoot -2.92764 2.66244
ltoes -8.12216
374
root 9.37112 18.3116 -47.9292 -183.121 -1.11173 -179.047
lowerback 2.01316 0.603566 -0.500255
upperback 1.91334 0.733365 1.03579
thorax 0.810996 0.328701 1.33129
lowerneck -9.72252 -2.21115 -8.37763
upperneck 24.2397 -6.41251 12.1888
head 9.88595 -3.17091 4.88375
rclavicle 2.25807e-015 -1.61016e-014
rhumerus -36.3777 -14.0149 -82.2671
rradius 33.7263
rwrist 39.7622
rhand -32.2736 -13.3316
rfingers 7.12502
rthumb -5.51292 -43.2399
lclavicle 2.25807e-015 -1.61016e-014
lhumerus -38.1302 8.97593 83.4386
lradius 20.9004
lwrist -41.8085
lhand -26.2779 16.3405
lfingers 7.12502
lthumb 0.277303 46.3201
rfemur -7.23866 -15.1016 23.5373
rtibia 29.069
rfoot -162.406 12.1005
rtoes -17.6432
lfemur -19.6413 10.2744 -9.50958
ltibia 66.4768
lfoot -4.46819 3.40474
ltoes -7.96028
375
root 9.37116 18.3137 -48.0869 -183.204 -0.797101 -179.342
lowerback 2.12008 0.763668 -0.689993
upperback 1.98014 0.943237 0.905848
thorax 0.813082 0.431482 1.30082
lowerneck -9.84789 -2.23485 -8.30846
upperneck 24.527 -6.43726 11.9358
head 10.0061 -3.20003 4.78217
rclavicle 1.84093e-014 6.36111e-015
rhumerus -35.3146 -13.4785 -82.7684
rradius 33.9532
rwrist 39.4682
rhand -32.4127 -13.2781
rfingers 7.12502
rthumb -5.64722 -43.1829
lclavicle 1.84093e-014 6.36111e-015
lhumerus -38.7196 9.31915 83.2501
lradius 20.8656
lwrist -41.7084
lhand -26.0904 16.3152
lfingers 7.12502
lthumb 0.458455 46.2945
rfemur -6.35755 -14.8136 23.086
rtibia 28.7748
rfoot -162.696 12.5641
rtoes -16.8749
lfemur -20.3665 10.2911 -10.1457
ltibia 65.3118
lfoot -6.404 3.93557
ltoes -9.18487
376
root 9.37516 18.3147 -48.2464 -183.269 -0.583022 -179.347
lowerback 2.20156 0.891957 -0.689913
upperback 2.02886 1.11113 0.891125
thorax 0.813069 0.514099 1.28241
lowerneck -9.86296 -1.53664 -6.81237
upperneck 24.0501 -5.19504 10.7208
head 9.62427 -2.55896 4.22117
rclavicle -7.67806e-015 4.96962e-015
rhumerus -34.3099 -12.895 -83.1002
rradius 34.3153
rwrist 39.1388
rhand -31.9809 -12.8404
rfingers 7.12502
rthumb -5.23029 -42.7558
lclavicle -7.67806e-015 4.96962e-015
lhumerus -39.3858 9.58812 83.078
lradius 20.9077
lwrist -41.6265
lhand -25.9754 16.2838
lfingers 7.12502
lthumb 0.569464 46.2628
rfemur -5.47051 -14.594 23.0199
rtibia 28.3982
rfoot -163.107 12.9254
rtoes -16.3881
lfemur -21.1127 10.2877 -10.4227
ltibia 63.9873
lfoot -7.96574 4.49918
ltoes -8.59123
377
root 9.37754 18.3193 -48.4072 -183.281 -0.37253 -179.424
lowerback 2.18855 0.97778 -0.756396
upperback 2.08778 1.22339 0.812611
thorax 0.877989 0.568672 1.23836
lowerneck -9.90432 -1.39213 -6.42547
upperneck 24.0474 -4.94187 10.3484
head 9.58801 -2.43405 4.05022
rclavicle -1.175e-014 -1.32192e-014
rhumerus -33.2737 -12.3082 -83.6176
rradius 34.6425
rwrist 39.0087
rhand -31.6429 -13.0135
rfingers 7.12502
rthumb -4.90391 -42.9368
lclavicle -1.175e-014 -1.32192e-014
lhumerus -40.095 9.33734 83.1507
lradius 21.1776
lwrist -40.8685
lhand -26.1713 16.0358
lfingers 7.12502
lthumb 0.380339 46.0152
rfemur -4.70493 -14.0077 22.8654
rtibia 28.0717
rfoot -163.613 12.8733
rtoes -16.3844
lfemur -21.7701 10.0634 -10.8494
ltibia 62.3559
lfoot -9.4286 5.34823
ltoes -7.72563
378
root 9.38615 18.2963 -48.5456 -183.221 -0.636341 -179.319
lowerback 2.38444 0.956733 -0.73864
upperback 2.06117 1.19379 0.829229
thorax 0.741901 0.55447 1.24223
lowerneck -9.9797 -1.42946 -6.4633
upperneck 24.1763 -4.95631 10.1947
head 9.64678 -2.45549 4.003
rclavicle -1.46262e-014 -8.74653e-015
rhumerus -32.3204 -11.7966 -83.9401
rradius 35.1196
rwrist 38.7033
rhand -31.3712 -12.7207
rfingers 7.12502
rthumb -4.6416 -42.6498
lclavicle -1.46262e-014 -8.74653e-015
lhumerus -40.7337 9.04204 83.2908
lradius 21.443
lwrist -40.1511
lhand -26.0706 16.1483
lfingers 7.12502
lthumb 0.477528 46.1275
rfemur -3.95253 -13.9919 23.0409
rtibia 27.61
rfoot -164.127 12.8354
rtoes -16.2989
lfemur -22.7722 9.59262 -11.0703
ltibia 60.6791
lfoot -10.1562 6.42467
ltoes -7.13454
